<?xml version="1.0" standalone="no"?>
<!DOCTYPE svg PUBLIC "-//W3C//DTD SVG 20010904//EN"
 "http://www.w3.org/TR/2001/REC-SVG-20010904/DTD/svg10.dtd">
<svg version="1.0" xmlns="http://www.w3.org/2000/svg"
 width="508.000000pt" height="123.000000pt" viewBox="0 0 508.000000 123.000000"
 preserveAspectRatio="xMidYMid meet">

<g transform="translate(0.000000,123.000000) scale(0.100000,-0.100000)"
fill="#000000" stroke="none">
<path d="M1663 954 c-21 -21 -24 -32 -19 -62 6 -42 28 -62 66 -62 59 0 93 56
66 109 -26 49 -73 55 -113 15z"/>
<path d="M4182 973 c-21 -8 -43 -61 -36 -88 13 -52 85 -73 119 -35 55 60 -8
153 -83 123z"/>
<path d="M420 891 l0 -61 -65 0 c-53 0 -66 -3 -75 -19 -28 -53 1 -81 81 -81
52 0 59 -2 59 -20 0 -18 -7 -20 -58 -20 -44 0 -63 -5 -75 -18 -42 -46 -9 -82
74 -82 l59 0 0 -170 0 -170 70 0 69 0 3 122 3 123 96 5 c83 4 101 9 138 33 23
15 44 34 48 42 4 11 24 15 83 15 83 0 110 12 110 49 0 33 -33 51 -93 51 -50 0
-57 2 -57 20 0 18 7 20 59 20 80 0 109 28 81 81 -9 16 -22 19 -88 19 -77 0
-77 0 -99 35 -13 19 -42 45 -65 57 -38 20 -60 23 -200 26 l-158 4 0 -61z m294
-80 c42 -47 38 -154 -7 -186 -14 -9 -44 -15 -84 -15 l-63 0 0 110 0 110 68 0
c55 0 72 -4 86 -19z"/>
<path d="M1100 600 l0 -350 65 0 64 0 3 148 3 147 108 3 107 3 0 -151 0 -150
70 0 70 0 0 350 0 350 -70 0 -70 0 0 -140 0 -140 -104 0 -103 0 -6 68 c-4 37
-7 100 -7 140 l0 72 -65 0 -65 0 0 -350z"/>
<path d="M2025 766 c-17 -7 -39 -21 -48 -30 -16 -16 -17 -16 -17 8 0 25 -2 26
-65 26 l-65 0 0 -260 0 -260 65 0 65 0 2 191 3 192 28 21 c26 19 30 19 55 5
l27 -15 3 -197 2 -197 71 0 71 0 -4 213 c-3 229 -8 252 -59 289 -34 25 -96 32
-134 14z"/>
<path d="M2380 769 c-68 -21 -120 -80 -120 -138 0 -19 6 -21 64 -21 62 0 64 1
75 30 8 24 16 30 40 30 36 0 51 -22 51 -74 l0 -36 -57 0 c-70 0 -137 -30 -164
-74 -25 -41 -25 -129 -1 -175 36 -66 133 -91 199 -52 26 16 32 17 37 5 4 -10
23 -14 68 -14 l63 0 -3 162 c-4 264 -14 308 -83 343 -39 21 -123 28 -169 14z
m110 -344 c0 -53 -3 -66 -19 -75 -62 -33 -104 8 -82 80 9 32 18 41 44 49 57
16 57 16 57 -54z"/>
<path d="M2848 757 c-45 -23 -48 -23 -48 -6 0 17 -8 19 -65 19 l-65 0 0 -260
0 -260 65 0 65 0 0 188 c0 202 3 216 52 227 19 5 32 1 47 -14 20 -20 21 -32
21 -211 l0 -190 71 0 71 0 -4 213 c-3 178 -6 217 -21 244 -37 70 -113 89 -189
50z"/>
<path d="M3220 769 c-19 -6 -46 -19 -61 -30 -61 -43 -91 -174 -70 -309 20
-129 69 -180 180 -188 89 -6 131 12 171 74 33 53 39 98 14 108 -9 3 -35 6 -60
6 -39 0 -44 -3 -50 -27 -10 -42 -23 -53 -61 -53 -48 0 -63 39 -63 170 0 94 2
103 25 125 13 14 30 25 37 25 27 0 57 -31 64 -65 l6 -35 59 0 59 0 0 37 c0 52
-35 118 -76 143 -39 25 -124 34 -174 19z"/>
<path d="M3633 771 c-48 -12 -80 -36 -111 -83 -25 -38 -27 -51 -30 -152 -2
-63 1 -129 7 -153 24 -87 101 -142 200 -143 68 0 125 17 157 47 l25 23 -22 38
c-12 20 -23 38 -25 40 -1 2 -17 -6 -35 -17 -48 -29 -119 -28 -147 2 -12 13
-25 37 -28 55 l-6 32 136 0 136 0 0 54 c0 124 -35 207 -101 242 -37 19 -113
26 -156 15z m95 -118 c12 -10 24 -35 28 -55 l6 -38 -71 0 c-65 0 -71 2 -71 20
0 26 26 77 42 83 25 10 46 7 66 -10z"/>
<path d="M4458 766 c-98 -36 -131 -93 -137 -235 -7 -194 62 -291 207 -291 88
0 139 30 177 105 28 55 30 65 29 169 0 87 -4 119 -18 146 -23 45 -54 78 -88
96 -41 21 -127 26 -170 10z m101 -111 c40 -20 54 -84 42 -188 -10 -87 -28
-117 -72 -117 -44 0 -65 37 -73 129 -8 92 4 153 37 176 27 19 31 19 66 0z"/>
<path d="M1650 510 l0 -260 65 0 65 0 0 260 0 260 -65 0 -65 0 0 -260z"/>
<path d="M4150 510 l0 -260 65 0 65 0 0 260 0 260 -65 0 -65 0 0 -260z"/>
<path d="M3950 370 c-24 -24 -27 -91 -6 -109 28 -24 79 -24 109 -1 33 26 36
66 6 104 -26 33 -79 36 -109 6z"/>
</g>
</svg>
